<svg width="314" height="65" viewBox="0 0 314 65" fill="none" xmlns="http://www.w3.org/2000/svg">
<path d="M104.846 61.5152C103.659 61.5152 102.586 61.3589 101.628 61.0464C100.669 60.7547 99.7631 60.2756 98.9089 59.6089C98.0756 58.9422 97.2422 58.0672 96.4089 56.9839H96.1589L94.6277 60.8902H85.0339L95.3152 12.2652H107.409L105.878 19.4839C105.628 20.7756 105.326 22.036 104.971 23.2652C104.638 24.4735 104.305 25.5672 103.971 26.5464C103.638 27.5047 103.336 28.286 103.065 28.8902H103.315C103.878 28.2027 104.461 27.5568 105.065 26.9527C105.669 26.3277 106.398 25.8277 107.253 25.4527C108.107 25.0568 109.19 24.8589 110.503 24.8589C112.315 24.8589 113.982 25.286 115.503 26.1402C117.023 26.9943 118.242 28.411 119.159 30.3902C120.076 32.3485 120.534 35.0047 120.534 38.3589C120.534 40.0881 120.336 41.9943 119.94 44.0777C119.544 46.1402 118.93 48.2027 118.096 50.2652C117.284 52.3068 116.253 54.1818 115.003 55.8902C113.753 57.5777 112.284 58.9422 110.596 59.9839C108.909 61.0047 106.992 61.5152 104.846 61.5152ZM101.909 51.7964C102.576 51.7964 103.221 51.5568 103.846 51.0777C104.471 50.5777 105.044 49.911 105.565 49.0777C106.086 48.2235 106.544 47.2547 106.94 46.1714C107.336 45.0881 107.638 43.9422 107.846 42.7339C108.076 41.5047 108.19 40.286 108.19 39.0777C108.19 37.6193 107.961 36.5047 107.503 35.7339C107.065 34.9631 106.398 34.5777 105.503 34.5777C104.878 34.5777 104.294 34.7756 103.753 35.1714C103.211 35.5464 102.711 36.0672 102.253 36.7339C101.815 37.3797 101.419 38.1297 101.065 38.9839C100.732 39.8381 100.44 40.7443 100.19 41.7027C99.961 42.6402 99.7839 43.5985 99.6589 44.5777C99.5339 45.536 99.4714 46.4527 99.4714 47.3277C99.4714 48.661 99.6693 49.7443 100.065 50.5777C100.461 51.3902 101.076 51.7964 101.909 51.7964Z" fill="#2185D5"/>
<path d="M136.615 61.5152C133.636 61.5152 131.105 60.9527 129.021 59.8277C126.938 58.7027 125.344 57.0985 124.24 55.0152C123.157 52.911 122.615 50.411 122.615 47.5152C122.615 44.6193 123.021 41.8172 123.834 39.1089C124.667 36.4006 125.917 33.9735 127.584 31.8277C129.271 29.6818 131.386 27.9839 133.928 26.7339C136.469 25.4839 139.459 24.8589 142.896 24.8589C146.876 24.8589 149.99 25.7547 152.24 27.5464C154.511 29.3381 155.646 31.7235 155.646 34.7027C155.646 36.661 155.271 38.4422 154.521 40.0464C153.771 41.6297 152.615 42.9943 151.053 44.1402C149.511 45.286 147.542 46.1714 145.146 46.7964C142.751 47.4006 139.907 47.7027 136.615 47.7027H134.771C134.771 47.786 134.771 47.8693 134.771 47.9527C134.771 48.0152 134.771 48.0985 134.771 48.2027C134.771 49.786 135.198 50.9527 136.053 51.7027C136.907 52.4527 138.188 52.8277 139.896 52.8277C141.688 52.8277 143.386 52.5568 144.99 52.0152C146.594 51.4735 148.313 50.7235 150.146 49.7652V58.3277C148.251 59.286 146.292 60.0568 144.271 60.6402C142.251 61.2235 139.698 61.5152 136.615 61.5152ZM135.99 40.1402H136.896C138.709 40.1402 140.146 39.9006 141.209 39.4214C142.271 38.9422 143.032 38.3381 143.49 37.6089C143.948 36.8797 144.178 36.1506 144.178 35.4214C144.178 34.7547 143.969 34.1922 143.553 33.7339C143.136 33.2756 142.469 33.0464 141.553 33.0464C140.615 33.0464 139.751 33.411 138.959 34.1402C138.167 34.8693 137.511 35.786 136.99 36.8902C136.469 37.9735 136.136 39.0568 135.99 40.1402Z" fill="#2185D5"/>
<path d="M154.571 60.8902L162.04 25.4839H171.696L171.134 31.3902H171.384C172.363 29.7235 173.363 28.4214 174.384 27.4839C175.405 26.5256 176.53 25.8485 177.759 25.4527C179.009 25.0568 180.426 24.8589 182.009 24.8589C182.467 24.8589 182.946 24.8902 183.446 24.9527C183.967 24.9943 184.321 25.0464 184.509 25.1089L181.884 37.0777C181.426 36.8902 180.863 36.7339 180.196 36.6089C179.53 36.4631 178.811 36.3902 178.04 36.3902C177.103 36.3902 176.217 36.5464 175.384 36.8589C174.571 37.1506 173.821 37.6402 173.134 38.3277C172.467 38.9943 171.863 39.911 171.321 41.0777C170.801 42.2235 170.353 43.6402 169.978 45.3277L166.665 60.8902H154.571Z" fill="#2185D5"/>
<path d="M179.684 60.8902L189.34 15.2027H216.278L214.184 25.1089H199.465L197.653 33.8277H211.278L209.121 43.7964H195.434L191.903 60.8902H179.684Z" fill="#F3F3F3"/>
<path d="M228.14 61.5152C225.244 61.5152 222.776 60.9839 220.734 59.9214C218.713 58.8589 217.171 57.3172 216.109 55.2964C215.046 53.2547 214.515 50.786 214.515 47.8902C214.515 45.4735 214.786 43.1402 215.328 40.8902C215.869 38.6193 216.682 36.5152 217.765 34.5777C218.848 32.6402 220.192 30.9422 221.796 29.4839C223.401 28.0256 225.255 26.8902 227.359 26.0777C229.484 25.2652 231.859 24.8589 234.484 24.8589C237.38 24.8589 239.838 25.3902 241.859 26.4527C243.901 27.5152 245.453 29.0672 246.515 31.1089C247.578 33.1297 248.109 35.5881 248.109 38.4839C248.109 40.9006 247.838 43.2443 247.296 45.5152C246.755 47.7652 245.942 49.8589 244.859 51.7964C243.776 53.7339 242.432 55.4318 240.828 56.8902C239.223 58.3485 237.359 59.4839 235.234 60.2964C233.13 61.1089 230.765 61.5152 228.14 61.5152ZM229.484 52.4527C230.192 52.4527 230.859 52.1818 231.484 51.6402C232.13 51.0985 232.713 50.3589 233.234 49.4214C233.755 48.4631 234.203 47.3797 234.578 46.1714C234.953 44.9422 235.244 43.6402 235.453 42.2652C235.661 40.8902 235.765 39.5047 235.765 38.1089C235.765 37.1922 235.651 36.4318 235.421 35.8277C235.213 35.2027 234.911 34.7339 234.515 34.4214C234.119 34.1089 233.64 33.9527 233.078 33.9527C232.369 33.9527 231.692 34.2235 231.046 34.7652C230.421 35.3068 229.848 36.0464 229.328 36.9839C228.828 37.9214 228.39 39.0047 228.015 40.2339C227.64 41.4422 227.348 42.7443 227.14 44.1402C226.953 45.5152 226.859 46.9006 226.859 48.2964C226.859 49.6714 227.088 50.7131 227.546 51.4214C228.005 52.1089 228.651 52.4527 229.484 52.4527Z" fill="#F3F3F3"/>
<path d="M263.815 61.5152C260.919 61.5152 258.451 60.9839 256.409 59.9214C254.388 58.8589 252.846 57.3172 251.784 55.2964C250.721 53.2547 250.19 50.786 250.19 47.8902C250.19 45.4735 250.461 43.1402 251.003 40.8902C251.544 38.6193 252.357 36.5152 253.44 34.5777C254.523 32.6402 255.867 30.9422 257.471 29.4839C259.076 28.0256 260.93 26.8902 263.034 26.0777C265.159 25.2652 267.534 24.8589 270.159 24.8589C273.055 24.8589 275.513 25.3902 277.534 26.4527C279.576 27.5152 281.128 29.0672 282.19 31.1089C283.253 33.1297 283.784 35.5881 283.784 38.4839C283.784 40.9006 283.513 43.2443 282.971 45.5152C282.43 47.7652 281.617 49.8589 280.534 51.7964C279.451 53.7339 278.107 55.4318 276.503 56.8902C274.898 58.3485 273.034 59.4839 270.909 60.2964C268.805 61.1089 266.44 61.5152 263.815 61.5152ZM265.159 52.4527C265.867 52.4527 266.534 52.1818 267.159 51.6402C267.805 51.0985 268.388 50.3589 268.909 49.4214C269.43 48.4631 269.878 47.3797 270.253 46.1714C270.628 44.9422 270.919 43.6402 271.128 42.2652C271.336 40.8902 271.44 39.5047 271.44 38.1089C271.44 37.1922 271.326 36.4318 271.096 35.8277C270.888 35.2027 270.586 34.7339 270.19 34.4214C269.794 34.1089 269.315 33.9527 268.753 33.9527C268.044 33.9527 267.367 34.2235 266.721 34.7652C266.096 35.3068 265.523 36.0464 265.003 36.9839C264.503 37.9214 264.065 39.0047 263.69 40.2339C263.315 41.4422 263.023 42.7443 262.815 44.1402C262.628 45.5152 262.534 46.9006 262.534 48.2964C262.534 49.6714 262.763 50.7131 263.221 51.4214C263.68 52.1089 264.326 52.4527 265.159 52.4527Z" fill="#F3F3F3"/>
<path d="M296.053 61.5152C292.969 61.5152 290.626 60.8589 289.021 59.5464C287.438 58.2131 286.646 56.036 286.646 53.0152C286.646 52.161 286.719 51.1818 286.865 50.0777C287.032 48.9735 287.209 47.9943 287.396 47.1402L290.021 34.5777H285.209L286.49 28.6402L293.303 25.8902L297.584 18.3902H305.646L304.115 25.4839H313.115L311.146 34.5777H302.115L299.49 46.5464C299.365 47.1506 299.251 47.7652 299.146 48.3902C299.042 48.9943 298.99 49.4735 298.99 49.8277C298.99 50.536 299.167 51.0464 299.521 51.3589C299.896 51.6506 300.376 51.7964 300.959 51.7964C301.751 51.7964 302.646 51.661 303.646 51.3902C304.646 51.0985 305.657 50.7443 306.678 50.3277V59.4214C305.365 60.0672 303.834 60.5777 302.084 60.9527C300.355 61.3277 298.344 61.5152 296.053 61.5152Z" fill="#F3F3F3"/>
<path d="M65.9214 60.8902L75.5777 15.2027H87.7964L78.1402 60.8902H65.9214Z" fill="#2185D5"/>
<path d="M15.1137 15.1137C30.1489 0.0785599 49.9353 -4.51189 59.3079 4.8607L59.1894 4.97923C51.3005 -0.642326 36.8717 3.25528 25.7351 14.3919C14.5984 25.5285 10.7008 39.9574 16.3224 47.8462C17.9486 50.1283 17.2001 54.0395 14.0678 57.1719C10.9355 60.3042 6.81332 61.2605 4.8607 59.3079C-4.51189 49.9353 0.0785599 30.1489 15.1137 15.1137Z" fill="#2185D5"/>
<path d="M49.0549 49.0549C34.0197 64.0901 14.2333 68.6805 4.8607 59.3079L4.97923 59.1894C12.8681 64.8109 27.2969 60.9133 38.4335 49.7767C49.5702 38.6401 53.4678 24.2113 47.8462 16.3224C46.22 14.0403 46.9685 10.1291 50.1008 6.99675C53.2331 3.86442 57.3553 2.90808 59.3079 4.8607C68.6805 14.2333 64.0901 34.0197 49.0549 49.0549Z" fill="#F3F3F3"/>
</svg>
